# AST/ASF file generated using VICON BodyLanguage
# -----------------------------------------------
:version 1.10
:name VICON
:units
  mass 1.0
  length 0.45
  angle deg
:documentation
   .ast/.asf automatically generated from VICON data using
   VICON BodyBuilder and BodyLanguage model FoxedUp or BRILLIANT.MOD
:root
   order TX TY TZ RX RY RZ
   axis XYZ
   position 0 0 0  
   orientation 0 0 0 
:bonedata
  begin
     id 1 
     name lhipjoint
     direction 0.624716 -0.669793 0.401383 
     length 2.38238 
     axis 0 0 0  XYZ
  end
  begin
     id 2 
     name lfemur
     direction 0.34202 -0.939693 0  
     length 6.4574  
     axis 0 0 20  XYZ
    dof rx ry rz
    limits (-160.0 20.0)
           (-70.0 70.0)
           (-60.0 70.0)
  end
  begin
     id 3 
     name ltibia
     direction 0.34202 -0.939693 0   
     length 7.68739   
     axis 0 0 20   XYZ
    dof rx
    limits (-10.0 170.0)
  end
  begin
     id 4 
     name lfoot
     direction 0.0681309 -0.187188 0.979959   
     length 2.46615   
     axis -90 7.62852e-016 20   XYZ
    dof rx rz
    limits (-45.0 90.0)
           (-70.0 20.0)
  end
  begin
     id 5 
     name ltoes
     direction 1.53566e-011 -4.21819e-011 1   
     length 1.2376   
     axis -90 7.62852e-016 20   XYZ
    dof rx
    limits (-90.0 20.0)
  end
  begin
     id 6 
     name rhipjoint
     direction -0.644473 -0.655875 0.393043   
     length 2.43293  
     axis 0 0 0  XYZ 
  end
  begin
     id 7 
     name rfemur
     direction -0.34202 -0.939693 0   
     length 6.7025   
     axis 0 0 -20   XYZ
    dof rx ry rz
    limits (-160.0 20.0)
           (-70.0 70.0)
           (-70.0 60.0)
  end
  begin
     id 8 
     name rtibia
     direction -0.34202 -0.939693 0   
     length 7.80547   
     axis 0 0 -20   XYZ
    dof rx
    limits (-10.0 170.0)
 end
 begin
     id 9 
     name rfoot
     direction -0.0756734 -0.207911 0.975216   
     length 2.40315  
     axis -90 -7.62852e-016 -20   XYZ
    dof rx rz
    limits (-45.0 90.0)
           (-20.0 70.0)
  end
  begin
     id 10 
     name rtoes
     direction -1.5353e-011 -4.21879e-011 1   
     length 1.20477   
     axis -90 -7.62852e-016 -20   XYZ
    dof rx
    limits (-90.0 20.0)
  end
  begin
     id 11 
     name lowerback
     direction 0.0160353 0.987463 -0.157037   
     length 2.18572   
     axis 0 0 0   XYZ
    dof rx ry rz
    limits (-20.0 45.0)
           (-30.0 30.0)
           (-30.0 30.0)
  end
  begin
     id 12 
     name upperback
     direction -0.00499661 0.999756 0.0215076   
     length 2.18016   
     axis 0 0 0   XYZ
    dof rx ry rz
    limits (-20.0 45.0)
           (-30.0 30.0)
           (-30.0 30.0)
  end
  begin
     id 13 
     name thorax
     direction -0.00921346 0.995333 0.0960619   
     length 2.24923   
     axis 0 0 0   XYZ
    dof rx ry rz
    limits (-20.0 45.0)
           (-30.0 30.0)
           (-30.0 30.0)
  end
  begin
     id 14 
     name lowerneck
     direction 0.0274184 0.991181 0.12965   
     length 1.70911   
     axis 0 0 0   XYZ
    dof rx ry rz
    limits (-20.0 45.0)
           (-30.0 30.0)
           (-30.0 30.0)
  end
  begin
     id 15 
     name upperneck
     direction 0.0015627 0.999959 -0.00893559   
     length 1.69312   
     axis 0 0 0   XYZ
    dof rx ry rz
    limits (-20.0 45.0)
           (-30.0 30.0)
           (-30.0 30.0)
  end
  begin
     id 16
     name head
     direction -0.00230242 0.999856 -0.0168327  
     length 1.80241  
     axis 0 0 0   XYZ
    dof rx ry rz
    limits (-20.0 45.0)
           (-30.0 30.0)
           (-30.0 30.0)
  end
  begin
     id 17 
     name lclavicle
     direction 0.955523 0.290741 -0.0494489  
     length 3.84275  
     axis 0 0 0   XYZ
    dof ry rz
    limits (-20.0 10.0)
           (0.0 20.0)
  end
  begin
     id 18 
     name lhumerus
     direction 1 -4.48967e-011 -3.18382e-028   
     length 5.17714   
     axis 180 -30 -90   XYZ
    dof rx ry rz
    limits (-60.0 90.0)
           (-90.0 90.0)
           (-90.0 90.0)
  end
  begin
     id 19
     name lradius
     direction 1 -4.48968e-011 -2.22911e-027   
     length 3.43679   
     axis 180 -30 -90   XYZ
    dof rx
    limits (-10.0 170.0)
  end
  begin
     id 20
     name lwrist
     direction 1 -4.48951e-011 -6.32245e-027   
     length 1.7184   
     axis 3.57107e-015 90 90   XYZ
    dof ry
    limits (-180.0 0.0)
 end
  begin
     id 21 
     name lhand
     direction 1 -4.48924e-011 -1.26431e-026   
     length 0.573117   
     axis 8.06912e-015 90 90   XYZ
    dof rx rz
    limits (-90.0 90.0)
           (-45.0 45.0)
  end
  begin
     id 22 
     name lfingers
     direction 1 -4.49001e-011 -2.52965e-026   
     length 0.462062   
     axis 1.61381e-014 90 90   XYZ
    dof rx
    limits (0.0 90.0)
  end
  begin
     id 23
     name lthumb
     direction 0.707107 -6.35008e-011 0.707107   
     length 0.663431   
     axis -90 45 -1.62303e-014   XYZ
    dof rx rz
    limits (-45.0 45.0)
           (-45.0 45.0)
  end
  begin
     id 24 
     name rclavicle
     direction -0.963917 0.256881 -0.0698287   
     length 3.73057  
     axis 0 0 0   XYZ 
    dof ry rz
    limits (-10.0 20.0)
           (-20.0 0.0)
  end
  begin
     id 25 
     name rhumerus
     direction -1 -4.48962e-011 -2.73982e-027  
     length 5.23908   
     axis 180 30 90   XYZ
    dof rx ry rz
    limits (-90.0 60.0)
           (-90.0 90.0)
           (-90.0 90.0)
  end
  begin
     id 26 
     name rradius
     direction -1 -4.48968e-011 -4.33218e-027   
     length 3.46485   
     axis 180 30 90   XYZ
    dof rx
    limits (-10.0 170.0)
  end
  begin
     id 27 
     name rwrist
     direction -1 -4.48989e-011 -6.32372e-027   
     length 1.73243   
     axis 3.57107e-015 -90 -90   XYZ
    dof ry
    limits (-180.0 0.0)
  end
  begin
     id 28
     name rhand
     direction -1 -4.48948e-011 -1.26448e-026   
     length 0.608752   
     axis 8.06912e-015 -90 -90   XYZ
    dof rx rz
    limits (-90.0 90.0)
           (-45.0 45.0)
  end
  begin
     id 29
     name rfingers
     direction -1 -4.48962e-011 -2.52913e-026   
     length 0.490792   
     axis 1.61381e-014 -90 -90   XYZ
    dof rx
    limits (0.0 90.0)
  end
  begin
     id 30
     name rthumb
     direction -0.707107 -6.34878e-011 0.707107   
     length 0.704682   
     axis -90 -45 1.62303e-014   XYZ
    dof rx rz
    limits (-45.0 45.0)
           (-45.0 45.0)
  end
:hierarchy
  begin
    root lhipjoint rhipjoint lowerback
    lhipjoint lfemur
    lfemur ltibia
    ltibia lfoot
    lfoot ltoes
    rhipjoint rfemur
    rfemur rtibia
    rtibia rfoot
    rfoot rtoes
    lowerback upperback
    upperback thorax
    thorax lowerneck lclavicle rclavicle
    lowerneck upperneck
    upperneck head
    lclavicle lhumerus
    lhumerus lradius
    lradius lwrist
    lwrist lhand lthumb
    lhand lfingers
    rclavicle rhumerus
    rhumerus rradius
    rradius rwrist
    rwrist rhand rthumb
    rhand rfingers
  end

#!OML:ASF G:\JayActor3\Patient Classification 1\Patient 1\Session 6\male.ASF
:FULLY-SPECIFIED
:DEGREES
1
root 5.10807 16.3441 -4.79554 79.4212 -87.3866 -82.5805
lowerback -0.6098 -0.137434 2.35459
upperback 5.51585 -0.398206 0.311474
thorax 6.04947 -0.133487 -1.02247
lowerneck 1.55643 2.39973 3.43208
upperneck 18.4099 2.79412 -1.43283
head 5.35933 1.2803 -0.926367
rclavicle 3.926e-015 -1.05356e-014
rhumerus -29.9209 -15.3893 -80.8448
rradius 29.3303
rwrist 1.09685
rhand -20.3459 -9.81531
rfingers 7.12502
rthumb 6.00583 -39.7102
lclavicle 3.926e-015 -1.05356e-014
lhumerus -27.1264 12.6017 80.3887
lradius 27.0314
lwrist 25.6234
lhand -15.5239 8.10499
lfingers 7.12502
lthumb 10.6594 37.8146
rfemur -10.3926 2.0156 22.0341
rtibia 37.5227
rfoot -25.8853 -16.7632
rtoes 0.14261
lfemur -1.42248 5.44509 -17.1589
ltibia 25.5178
lfoot -21.9961 14.3301
ltoes 0.506
2
root 5.10786 16.344 -4.79404 80.3112 -87.3911 -83.4853
lowerback -0.61106 -0.135966 2.35311
upperback 5.52037 -0.396607 0.313056
thorax 6.05507 -0.132812 -1.01993
lowerneck 1.56932 2.40321 3.42429
upperneck 18.3868 2.79912 -1.42689
head 5.34988 1.28278 -0.923137
rclavicle -2.73329e-016 -1.19271e-015
rhumerus -29.9205 -15.4515 -80.822
rradius 29.3067
rwrist 1.17422
rhand -20.3165 -9.86082
rfingers 7.12502
rthumb 6.03423 -39.7549
lclavicle -2.73329e-016 -1.19271e-015
lhumerus -27.122 12.6377 80.3796
lradius 26.9732
lwrist 25.5638
lhand -15.5588 8.12044
lfingers 7.12502
lthumb 10.6258 37.8318
rfemur -10.3743 2.0298 22.0329
rtibia 37.5145
rfoot -25.8611 -16.7576
rtoes 0.152368
lfemur -1.39753 5.45113 -17.1641
ltibia 25.5135
lfoot -22.0078 14.3583
ltoes 0.486348
3
root 5.10821 16.3443 -4.79274 81.7588 -87.343 -84.9305
lowerback -0.587905 -0.128789 2.41045
upperback 5.49916 -0.388458 0.3269
thorax 6.01959 -0.126697 -1.03696
lowerneck 1.5727 2.40939 3.43445
upperneck 18.4005 2.80677 -1.43025
head 5.35403 1.28661 -0.925607
rclavicle -1.76421e-015 -4.17448e-015
rhumerus -29.9481 -15.5079 -80.798
rradius 29.2743
rwrist 1.24802
rhand -20.314 -9.79026
rfingers 7.12502
rthumb 6.03667 -39.6843
lclavicle -1.76421e-015 -4.17448e-015
lhumerus -27.1278 12.7057 80.346
lradius 26.9921
lwrist 25.4214
lhand -15.7314 9.3812
lfingers 7.12502
lthumb 10.4593 39.101
rfemur -10.3855 2.09014 22.0958
rtibia 37.5161
rfoot -25.8689 -16.7639
rtoes 0.143801
lfemur -1.37592 5.29803 -17.1475
ltibia 25.494
lfoot -22.1043 14.499
ltoes 0.735868
4
root 5.10777 16.3445 -4.79115 82.4239 -87.3877 -85.5842
lowerback -0.64456 -0.135971 2.35026
upperback 5.52018 -0.398083 0.325787
thorax 6.07418 -0.133803 -1.00538
lowerneck 1.57071 2.42284 3.41657
upperneck 18.3767 2.82661 -1.43042
head 5.34712 1.29543 -0.921798
rclavicle -3.47873e-016 -1.59028e-015
rhumerus -29.8981 -15.5061 -80.7994
rradius 29.2443
rwrist 1.25874
rhand -20.2713 -9.87486
rfingers 7.12502
rthumb 6.07793 -39.7677
lclavicle -3.47873e-016 -1.59028e-015
lhumerus -27.0812 12.7714 80.3465
lradius 26.8091
lwrist 25.4298
lhand -15.7368 8.61854
lfingers 7.12502
lthumb 10.4541 38.3386
rfemur -10.4069 2.12936 22.0458
rtibia 37.5253
rfoot -25.8776 -16.7575
rtoes 0.160352
lfemur -1.37866 5.42248 -17.1782
ltibia 25.4707
lfoot -22.0381 14.4579
ltoes 0.571019
5
root 5.10806 16.3448 -4.78902 83.1366 -87.4109 -86.2861
lowerback -0.663587 -0.138936 2.33243
upperback 5.51818 -0.401425 0.321384
thorax 6.08286 -0.136048 -1.00027
lowerneck 1.58083 2.43035 3.41348
upperneck 18.3683 2.83701 -1.43007
head 5.343 1.30028 -0.920851
rclavicle 2.23633e-016 -6.26172e-015
rhumerus -29.89 -15.5323 -80.7889
rradius 29.2161
rwrist 1.29021
rhand -20.25 -9.90216
rfingers 7.12502
rthumb 6.09847 -39.7944
lclavicle 2.23633e-016 -6.26172e-015
lhumerus -27.0643 12.8203 80.3343
lradius 26.6717
lwrist 25.4021
lhand -15.7966 8.30129
lfingers 7.12502
lthumb 10.3963 38.0243
rfemur -10.429 2.14294 22.0141
rtibia 37.5354
rfoot -25.8696 -16.7431
rtoes 0.149352
lfemur -1.374 5.42856 -17.213
ltibia 25.4464
lfoot -22.0378 14.4871
ltoes 0.577475
6
root 5.10857 16.3449 -4.78653 83.7048 -87.4385 -86.8416
lowerback -0.680553 -0.142867 2.31621
upperback 5.51384 -0.405709 0.313067
thorax 6.08782 -0.138584 -1.00016
lowerneck 1.59453 2.43666 3.41318
upperneck 18.3637 2.84552 -1.42992
head 5.33949 1.30427 -0.920558
rclavicle 2.03754e-015 -1.78906e-015
rhumerus -29.8841 -15.5587 -80.7791
rradius 29.1871
rwrist 1.31633
rhand -20.2292 -9.9335
rfingers 7.12502
rthumb 6.1185 -39.8251
lclavicle 2.03754e-015 -1.78906e-015
lhumerus -27.0484 12.8608 80.3225
lradius 26.5168
lwrist 25.3873
lhand -15.8298 7.79899
lfingers 7.12502
lthumb 10.3643 37.5236
rfemur -10.4573 2.14218 21.9727
rtibia 37.5542
rfoot -25.8627 -16.7189
rtoes 0.13678
lfemur -1.36699 5.42654 -17.2568
ltibia 25.4129
lfoot -22.0324 14.5204
ltoes 0.579624
7
root 5.1092 16.345 -4.78365 84.1377 -87.4706 -87.2636
lowerback -0.694273 -0.148185 2.30161
upperback 5.509 -0.411605 0.301184
thorax 6.0903 -0.141761 -1.00475
lowerneck 1.61264 2.44188 3.4161
upperneck 18.3613 2.85251 -1.43115
head 5.33598 1.30758 -0.921355
rclavicle -2.50966e-015 6.95746e-015
rhumerus -29.8786 -15.5826 -80.7712
rradius 29.1564
rwrist 1.33571
rhand -20.2208 -9.95813
rfingers 7.12502
rthumb 6.12663 -39.8495
lclavicle -2.50966e-015 6.95746e-015
lhumerus -27.0356 12.8927 80.3111
lradius 26.363
lwrist 25.3802
lhand -15.8292 7.22047
lfingers 7.12502
lthumb 10.3649 36.945
rfemur -10.481 2.12344 21.9216
rtibia 37.569
rfoot -25.848 -16.6852
rtoes 0.118093
lfemur -1.36222 5.43416 -17.3045
ltibia 25.387
lfoot -22.028 14.5386
ltoes 0.581439
8
root 5.10989 16.3449 -4.78062 84.5678 -87.4921 -87.6873
lowerback -0.699915 -0.153118 2.30186
upperback 5.50279 -0.41742 0.290557
thorax 6.08667 -0.144282 -1.01628
lowerneck 1.63496 2.44601 3.42224
upperneck 18.3636 2.85794 -1.43407
head 5.33325 1.31012 -0.923341
rclavicle -3.35449e-015 -6.06293e-015
rhumerus -29.8753 -15.6028 -80.7647
rradius 29.122
rwrist 1.34518
rhand -20.2241 -9.97058
rfingers 7.12502
rthumb 6.12343 -39.8621
lclavicle -3.35449e-015 -6.06293e-015
lhumerus -27.0282 12.9223 80.2977
lradius 26.2298
lwrist 25.3656
lhand -15.8017 6.74766
lfingers 7.12502
lthumb 10.3915 36.4709
rfemur -10.4979 2.09849 21.8807
rtibia 37.5802
rfoot -25.829 -16.6484
rtoes 0.095751
lfemur -1.35496 5.42845 -17.3433
ltibia 25.3682
lfoot -22.0349 14.5617
ltoes 0.602285
9
root 5.11043 16.3446 -4.77757 85.0349 -87.5067 -88.1542
lowerback -0.702217 -0.158055 2.30878
upperback 5.49877 -0.423691 0.282018
thorax 6.08344 -0.14679 -1.0294
lowerneck 1.66012 2.45063 3.42907
upperneck 18.3691 2.86403 -1.43834
head 5.33109 1.31286 -0.925871
rclavicle -3.37934e-015 6.95746e-015
rhumerus -29.8722 -15.6183 -80.7595
rradius 29.0901
rwrist 1.35181
rhand -20.2359 -9.97625
rfingers 7.12502
rthumb 6.11211 -39.8681
lclavicle -3.37934e-015 6.95746e-015
lhumerus -27.0231 12.9547 80.2832
lradius 26.1203
lwrist 25.3433
lhand -15.7593 6.42453
lfingers 7.12502
lthumb 10.4323 36.1457
rfemur -10.5047 2.07376 21.8472
rtibia 37.5858
rfoot -25.8093 -16.6098
rtoes 0.0784966
lfemur -1.34476 5.42641 -17.3731
ltibia 25.3592
lfoot -22.0466 14.5803
ltoes 0.62049
10
root 5.11085 16.3442 -4.77476 85.6364 -87.5055 -88.7603
lowerback -0.70286 -0.161621 2.32744
upperback 5.49768 -0.429073 0.279227
thorax 6.08243 -0.148462 -1.04306
lowerneck 1.68758 2.45597 3.43624
upperneck 18.3754 2.87128 -1.44414
head 5.32887 1.31606 -0.928919
rclavicle 9.19379e-016 -3.77691e-015
rhumerus -29.8648 -15.6267 -80.7563
rradius 29.0549
rwrist 1.35123
rhand -20.2532 -9.97335
rfingers 7.12502
rthumb 6.09539 -39.8657
lclavicle 9.19379e-016 -3.77691e-015
lhumerus -27.0192 12.9932 80.2669
lradius 26.0421
lwrist 25.3058
lhand -15.7054 6.31769
lfingers 7.12502
lthumb 10.4844 36.0362
rfemur -10.5036 2.06196 21.8342
rtibia 37.5851
rfoot -25.791 -16.577
rtoes 0.0708806
lfemur -1.33356 5.42365 -17.3839
ltibia 25.3594
lfoot -22.0638 14.6014
ltoes 0.639076
11
root 5.11104 16.3438 -4.77234 86.4153 -87.4874 -89.5484
lowerback -0.701697 -0.16252 2.35744
upperback 5.49823 -0.431756 0.282504
thorax 6.08224 -0.148436 -1.0566
lowerneck 1.71856 2.46137 3.44264
upperneck 18.3836 2.87843 -1.44934
head 5.32663 1.31913 -0.931702
rclavicle 2.01269e-015 -4.27387e-015
rhumerus -29.86 -15.6305 -80.7533
rradius 29.026
rwrist 1.34751
rhand -20.2684 -9.97278
rfingers 7.12502
rthumb 6.0807 -39.8655
lclavicle 2.01269e-015 -4.27387e-015
lhumerus -27.0194 13.0302 80.2512
lradius 25.9728
lwrist 25.2725
lhand -15.6652 6.26216
lfingers 7.12502
lthumb 10.5232 35.9787
rfemur -10.4958 2.06976 21.8447
rtibia 37.5799
rfoot -25.7752 -16.5584
rtoes 0.068532
lfemur -1.32007 5.42506 -17.3737
ltibia 25.3657
lfoot -22.0824 14.6238
ltoes 0.652513
